<?xml version="1.0" encoding="utf-8"?>
<!-- Generator: Adobe Illustrator 24.0.1, SVG Export Plug-In . SVG Version: 6.00 Build 0)  -->
<svg version="1.1" id="Layer_1" xmlns="http://www.w3.org/2000/svg" xmlns:xlink="http://www.w3.org/1999/xlink" x="0px" y="0px"
	 viewBox="0 0 128 128" style="enable-background:new 0 0 128 128;" xml:space="preserve">
<style type="text/css">
	.st0{fill:#FFFFFF;}
</style>
<g>
	<path class="st0" d="M79.6,98c-2.4,7.7-6.9,11.3-13.5,11.2c-7.2-0.1-11.5-4.1-13.7-12.8c-1.2,0.8-2.3,1.5-3.5,2.2
		c-7.9,4.6-17.6,3.8-23.9-2.1c-4.8-4.5-6.2-10.2-5.8-16.6c0.4-5.2,2.8-9.6,5.2-14c7.7-14.6,15.3-29.2,22.9-43.9
		c3.2-6.1,8-9.5,14.8-9.6c7.1-0.1,12.7,3.1,16.2,9.3C84.6,33,90.7,44.4,96.9,55.7c2.7,4.9,5.4,9.7,8.1,14.6c3,5.3,4.6,10.9,3.8,17
		c-1,8.2-7,13.7-15.3,14.4c-4.5,0.4-8.7-0.6-12.6-2.9C80.5,98.5,80.1,98.3,79.6,98z M64.4,84.2c-2.3,2.4-4.5,4.7-6.6,7
		c-0.3,0.3-0.5,0.9-0.5,1.3c0.1,1.6,0.1,3.1,0.4,4.6c1.1,6.2,8.2,9.1,13.3,5.4c2.7-2,3.8-4.7,3.6-8c-0.3-7.7-0.6-15.4-0.9-23.2
		c0-1.1-0.6-1.8-1.5-2.4c-1.2-0.8-2.4-1.7-3.3-2.8c-4.6-5.9-3.6-17.3,1.9-22.4c2.2-2.1,5-2.3,7.4-0.5c0.8,0.6,1.5,1.3,2.1,2.1
		c3.3,4.5,4.8,9.6,4.2,15.2c-0.4,3.5-1.8,6.5-5,8.3c-0.9,0.5-1,1.3-1,2.2c0.3,6.6,0.6,13.1,0.9,19.7c0,0.5,0.3,1.2,0.7,1.5
		c3.9,3.1,8.3,4.9,13.4,4.3c6.3-0.8,10.2-5.1,10.3-11.5c0.1-4.2-1-8.1-3-11.8c-5.5-9.8-10.9-19.6-16.4-29.5
		c-3.7-6.7-7.3-13.5-11.1-20.1c-2.4-4.2-6.3-6.2-11.1-6c-4.7,0.2-8.2,2.4-10.4,6.7c-8.3,16.2-16.7,32.2-25.1,48.3
		c-1.8,3.4-2.6,6.9-2.4,10.7c0.3,8,6.9,13.7,14.8,12.9c3.3-0.3,6.5-1.3,9-3.6c5.1-4.6,10.2-9.4,15.2-14.2c0.9-0.8,1.4-0.8,2.2,0
		c2.2,2.1,4.4,4.1,6.6,6.2c0.3,0.3,0.6,0.6,0.7,1c0.2,2.2,0.3,4.3,0.5,6.5c-0.1,0.1-0.3,0.1-0.4,0.2C70.1,89.7,67.4,87.1,64.4,84.2z
		"/>
	<path class="st0" d="M52.1,87.1c0.2,0.1,0.4,0.2,0.5,0.3c1.2-1.3,2.5-2.5,3.6-3.9c0.5-0.6,1-1.6,1-2.3c0-3.4-0.2-6.8-0.2-10.2
		c0-0.6,0.4-1.5,0.9-1.8c3-1.8,3.9-4.5,3.7-7.8c-0.2-2.4-0.3-4.8-0.5-7.2c-0.3-3.3-0.6-6.7-1-10c-0.1-0.6-0.6-1.2-0.9-1.8
		c-0.2,0.6-0.6,1.3-0.6,1.9c0,3.9,0.1,7.8,0.2,11.7c0,0.4,0,0.9-0.1,1.3c-0.1,0.3-0.5,0.7-0.8,0.7c-0.3,0-0.7-0.3-0.9-0.6
		c-0.2-0.3-0.2-0.8-0.2-1.2c-0.2-3.6-0.4-7.1-0.6-10.7c-0.1-0.9-0.1-1.8-0.3-2.7c0-0.3-0.5-0.7-0.6-0.6c-0.3,0.1-0.7,0.4-0.8,0.7
		c-0.1,0.5-0.1,1-0.1,1.5c0,3.8,0,7.5,0,11.3c0,0.8,0.4,2.2-0.8,2.2c-1.4,0.1-1.1-1.3-1.1-2.2c-0.2-3.9-0.3-7.7-0.5-11.6
		c0-0.7-0.5-1.3-0.8-2c-0.3,0.7-0.8,1.3-0.8,2c-0.1,1.7-0.1,3.5-0.1,5.3c0,2.3,0,4.5-0.1,6.8c0,0.7-0.5,1.8-0.9,1.9
		c-1.2,0.1-0.9-1-1-1.8c-0.1-1.2-0.1-2.4-0.1-3.6c-0.1-3.1-0.2-6.2-0.3-9.3c0-0.4-0.5-0.9-0.8-1.3c-0.3,0.3-0.8,0.7-0.8,1
		c-0.1,6.6-0.3,13.1-0.3,19.7c0,2.8,1.6,5.1,4.2,6.3c1.1,0.5,1.4,1.2,1.5,2.3c0.1,4.1,0.2,8.1,0.3,12.2
		C52.1,84.7,52.1,85.9,52.1,87.1z"/>
	<path class="st0" d="M52.1,87.1c0-1.2,0-2.4,0-3.5c-0.1-4.1-0.2-8.1-0.3-12.2c0-1.1-0.4-1.8-1.5-2.3c-2.6-1.2-4.2-3.4-4.2-6.3
		C46,56.2,46.2,49.6,46.3,43c0-0.4,0.5-0.7,0.8-1c0.3,0.4,0.7,0.9,0.8,1.3c0.2,3.1,0.2,6.2,0.3,9.3c0,1.2,0,2.4,0.1,3.6
		c0.1,0.7-0.2,1.9,1,1.8c0.4,0,0.9-1.2,0.9-1.9c0.1-2.3,0.1-4.5,0.1-6.8c0-1.8,0-3.5,0.1-5.3c0.1-0.7,0.5-1.3,0.8-2
		c0.3,0.7,0.8,1.3,0.8,2c0.2,3.9,0.3,7.7,0.5,11.6c0,0.9-0.3,2.3,1.1,2.2c1.2-0.1,0.8-1.4,0.8-2.2c0-3.8,0-7.5,0-11.3
		c0-0.5-0.1-1,0.1-1.5c0.1-0.3,0.5-0.6,0.8-0.7c0.1,0,0.6,0.4,0.6,0.6c0.2,0.9,0.3,1.8,0.3,2.7c0.2,3.6,0.4,7.1,0.6,10.7
		c0,0.4,0,0.9,0.2,1.2c0.2,0.3,0.6,0.6,0.9,0.6c0.3,0,0.6-0.4,0.8-0.7c0.1-0.4,0.1-0.9,0.1-1.3c-0.1-3.9-0.2-7.8-0.2-11.7
		c0-0.6,0.4-1.3,0.6-1.9c0.3,0.6,0.9,1.1,0.9,1.8c0.4,3.3,0.7,6.7,1,10c0.2,2.4,0.3,4.8,0.5,7.2c0.2,3.3-0.8,6-3.7,7.8
		c-0.5,0.3-0.9,1.2-0.9,1.8c0,3.4,0.2,6.8,0.2,10.2c0,0.8-0.4,1.7-1,2.3c-1.1,1.4-2.4,2.6-3.6,3.9C52.4,87.2,52.3,87.1,52.1,87.1z"
		/>
</g>
</svg>
